<?xml version="1.0" standalone="no"?>
<!DOCTYPE svg PUBLIC "-//W3C//DTD SVG 20010904//EN"
 "http://www.w3.org/TR/2001/REC-SVG-20010904/DTD/svg10.dtd">
<svg version="1.0" xmlns="http://www.w3.org/2000/svg"
 width="700.000000pt" height="700.000000pt" viewBox="0 0 700.000000 700.000000"
 preserveAspectRatio="xMidYMid meet">
<metadata>
Created by potrace 1.14, written by Peter Selinger 2001-2017
</metadata>
<g transform="translate(0.000000,700.000000) scale(0.100000,-0.100000)"
fill="#000000" stroke="none">
<path d="M3180 6993 c-366 -36 -603 -83 -886 -177 -495 -166 -935 -444 -1250
-793 -616 -679 -964 -1430 -1035 -2232 -15 -169 -6 -585 15 -736 87 -614 310
-1173 650 -1632 91 -124 529 -573 666 -684 47 -38 123 -88 169 -111 82 -42 85
-43 185 -43 119 0 159 16 224 90 56 64 110 173 330 665 104 234 227 504 271
600 145 310 392 780 411 780 3 0 25 -60 49 -132 74 -224 201 -440 418 -711
385 -479 1091 -1156 1473 -1412 112 -75 187 -100 266 -91 301 35 825 516 1216
1117 321 492 517 979 614 1529 25 143 27 181 32 488 3 274 1 355 -13 460 -77
582 -296 1127 -658 1642 -123 176 -217 289 -335 408 -543 543 -1307 886 -2151
967 -138 13 -557 19 -661 8z m536 -483 c451 -36 840 -140 1214 -326 485 -242
807 -536 1106 -1011 516 -820 625 -1700 320 -2589 -142 -414 -374 -827 -665
-1179 -192 -233 -530 -539 -575 -522 -8 3 -70 50 -138 105 -370 297 -866 784
-1157 1136 -127 154 -256 335 -245 346 5 5 50 26 99 48 480 207 988 555 1375
942 296 295 481 563 566 820 25 75 28 100 28 210 0 167 -6 184 -163 419 -265
401 -784 590 -1454 530 -781 -69 -1796 -484 -2344 -958 -95 -82 -188 -198
-231 -290 -45 -94 -55 -206 -26 -297 25 -81 99 -188 181 -264 135 -124 263
-182 403 -183 113 0 182 26 254 96 120 119 140 279 48 389 -65 77 -194 100
-290 52 -50 -25 -54 -25 -78 -9 -43 28 -41 43 17 102 178 181 600 429 1014
596 829 334 1560 384 1937 133 68 -45 157 -139 194 -204 15 -26 36 -60 47 -76
19 -28 19 -31 3 -88 -49 -177 -223 -416 -492 -678 -342 -332 -765 -616 -1199
-805 -125 -55 -480 -178 -496 -173 -14 5 219 346 411 603 188 252 220 303 284
457 69 165 69 269 1 413 -45 98 -92 148 -178 190 -121 60 -288 78 -492 54
-118 -13 -150 -24 -197 -67 -59 -53 -82 -105 -82 -182 0 -78 23 -129 83 -183
57 -51 92 -58 264 -50 81 3 147 4 147 1 0 -30 -71 -148 -159 -262 -514 -674
-724 -1048 -1251 -2231 -76 -170 -147 -330 -158 -355 l-21 -44 -233 234 c-128
129 -258 267 -289 305 -131 165 -270 401 -359 608 -438 1024 -314 2108 345
3032 170 237 391 484 550 612 264 214 585 376 940 478 358 102 771 144 1141
115z"/>
</g>
</svg>
